<svg width="158" height="71" viewBox="0 0 158 71" fill="none" xmlns="http://www.w3.org/2000/svg">
<path d="M131.6 45.6V45.3V36.4C131.6 36 131.6 36 132 36H135.5C135.8 36 135.9 36 135.9 36.4V52.2C135.9 52.6 135.9 52.6 135.5 52.6H132C131.7 52.6 131.5 52.5 131.4 52.3L124.3 42.5C124.2 42.5 124.3 42.6 124.3 42.7V52.2C124.3 52.6 124.3 52.6 123.9 52.6H120.4C120.1 52.6 120 52.6 120 52.2V36.4C120 36.1 120 36 120.4 36H124.4C124.8 36 124.9 36 125.1 36.3C127.3 39.4 129.7 42.3 131.7 45.6H131.6ZM158 44.2C158 48.9 154.9 52.3 150.1 52.8C148.1 53 146.1 52.8 144.3 52.1C142.692 51.4486 141.331 50.3039 140.415 48.8303C139.498 47.3568 139.073 45.6306 139.2 43.9C139.25 42.104 139.881 40.3727 140.999 38.9662C142.117 37.5597 143.662 36.5539 145.4 36.1C147.6 35.5 149.8 35.5 152 36.1C155.7 37.2 158 40.3 158 44.2V44.2ZM144.4 44C144.4 45 144.5 45.9 144.8 46.7C145.5 48.3 146.8 49.1 148.7 49.1C150.5 49.1 151.9 48.2 152.4 46.6C153 45 153 43.4 152.4 41.8C152.1 40.9 151.4 40.3 150.6 39.8C147.9 38.6 145 40.1 144.5 42.9L144.4 44V44ZM34.7 44.3V36.5C34.7 36.1 34.7 36 35.1 36H39.1C39.5 36 39.5 36 39.5 36.4V41.7C39.5 42 39.6 42.1 40 42.1H45.6C46 42.1 46 42.1 46 41.7V36.5C46 36 46.1 36 46.5 36H50.5C50.8 36 50.9 36 50.9 36.5V52.2C50.9 52.5 50.8 52.6 50.4 52.6H46.4C46.1 52.6 46 52.6 46 52.2V46.5C46 46.1 46 46 45.5 46H40C39.6 46 39.5 46.1 39.5 46.5V52.2C39.5 52.5 39.5 52.6 39.1 52.6H35.1C34.7 52.6 34.7 52.6 34.7 52.2V44.2V44.3ZM7.7 31.2C9.7 31.2 11.7 31.6 13.5 32.7C13.9 32.9 14 33 13.7 33.4L12.2 36.2C12 36.4 11.9 36.5 11.6 36.3C10.2474 35.4894 8.66864 35.1385 7.1 35.3C5.9 35.5 5.2 36.3 5.3 37.3C5.3 37.9 5.7 38.3 6.2 38.6L8.2 39.6L11.5 41.2C12.605 41.7946 13.4917 42.726 14.0312 43.859C14.5707 44.9919 14.7349 46.2674 14.5 47.5C14.1 50.2 12.5 51.9 9.9 52.5C8.31894 52.9628 6.65953 53.0951 5.02512 52.8886C3.39071 52.6822 1.81632 52.1414 0.399999 51.3C-5.66244e-07 51 -0.100001 50.8 0.199999 50.4L1.7 47.8C1.9 47.5 2 47.4 2.4 47.6C3.8 48.6 5.4 49 7.1 48.9C7.7 48.9 8.2 48.7 8.7 48.4C9.8 47.7 9.9 46.3 8.7 45.4C8.1 44.9 7.3 44.6 6.5 44.3L3.3 42.7C2.04502 41.9148 1.10664 40.7127 0.649492 39.3047C0.192343 37.8967 0.245628 36.3727 0.799999 35C1.8 32.7 3.7 31.7 6 31.3L7.7 31.2ZM55 46.7V43.5V42.2V36.5C55 36.1 55 35.9 55.4 36H59.4C59.8 36 59.9 36.1 59.9 36.5V45.2L60 47C60.2 48 60.8 48.7 61.8 49H63.8C64.9 48.9 65.6 48.2 65.9 47.2C66.0591 46.5119 66.1263 45.8058 66.1 45.1V36.4C66.1 36.1 66.1 36 66.6 36H70C70.4 36 70.5 36 70.5 36.4V40.8C70.5 43.4 70.7 45.9 70 48.5L69.9 48.8C69.5629 49.7 69.0145 50.5059 68.301 51.1498C67.5875 51.7937 66.7298 52.2567 65.8 52.5L63.8 52.9C62.6628 52.9473 61.5238 52.8803 60.4 52.7C58.3 52.3 56.5 51.3 55.6 49.3C55.2 48.4 55 47.6 54.9 46.7H55ZM16.9 44.3C16.9 39.7 19.9 36.3 24.7 35.8C26.6 35.6 28.5 35.6 30.3 36.3C31.8 36.9 31.8 36.9 31 38.3L30 40.2C29.7 40.5 29.6 40.5 29.3 40.3C28.2126 39.6692 26.9446 39.4226 25.7 39.6C23.9 39.8 22.7 40.9 22.3 42.6C22.0031 43.7139 22.0031 44.8861 22.3 46C22.9 48.2 24.7 49.3 27.2 49C28.1 48.8 28.9 48.5 29.7 48C30 47.8 30.1 47.9 30.2 48.2L31.7 50.9C31.8 51.2 31.7 51.3 31.5 51.5C29.5 52.7 27.4 53 25.2 52.8C23.7435 52.7797 22.3094 52.4383 21 51.8C19.6774 51.0655 18.5901 49.971 17.8644 48.6435C17.1387 47.316 16.8043 45.8099 16.9 44.3V44.3ZM48.5 60L46.9 65.6C46.8 66 46.6 66.1 46.3 66.1H44.5C44.2 66.1 44.1 66 44.1 65.7L41.5 56.7C41.5 56.5 41.5 56.4 41.8 56.4H44C44.3 56.4 44.4 56.6 44.5 56.9L45.7 61.9L45.9 62L47.1 57C47.2 56.6 47.4 56.4 47.8 56.4H49.4C49.8 56.4 49.9 56.5 50 56.9L51.3 62.2C51.8 60.4 52.3 58.7 52.6 57C52.7 56.6 52.9 56.4 53.3 56.4H55.1C55.4 56.4 55.5 56.7 55.4 56.9C54.7 58.5 54.4 60.2 53.9 61.9L52.8 65.7C52.7 65.9 52.6 66.1 52.2 66.1H50.5C50.1 66.1 50 65.9 49.9 65.6L48.6 60.3L48.5 60ZM111.8 52.6H110.8C110.5 52.6 110.6 52.3 110.6 52.1V36.6C110.6 36.1 110.7 35.9 111.2 36H115.1C115.4 36 115.5 36 115.5 36.3V52.3C115.5 52.6 115.4 52.6 115.1 52.6H111.8V52.6ZM109.7 60.5V57C109.7 56.8 109.7 56.6 109.9 56.4H112.1C112.5 56.4 112.7 56.5 112.8 56.8C114 58.5 115.4 60.2 116.6 62.1L116.5 57.1C116.5 56.5 116.7 56.4 117.1 56.4H118.5C118.9 56.4 119 56.5 119 56.9V65.6C119 66 119 66.1 118.5 66.1C117.8 66.1 117.1 66.2 116.5 66C116 65.7 115.7 65 115.3 64.5L112.3 60.3V64.7C112.3 65.2 112.5 65.7 112.2 66C111.9 66.2 111.4 66 110.9 66C109.8 66 109.8 66 109.8 64.9V60.5H109.7ZM69.2 61.4C69 62.2 68.9 63 68.5 63.7C68.0397 64.5453 67.3453 65.2397 66.5 65.7C66 65.9 65.5 66.2 64.9 66.2C63.7 66.2 62.5 66.4 61.3 65.8C60.586 65.497 59.9523 65.0321 59.449 64.442C58.9457 63.8519 58.5866 63.1528 58.4 62.4C58.1 61.2 58.4 60.1 58.8 59C59.1396 58.3718 59.6099 57.8236 60.1791 57.3924C60.7483 56.9612 61.4033 56.6569 62.1 56.5C63.2 56.2 64.4 56.2 65.5 56.5C67.5 57.1 68.7 58.5 69.1 60.5V61.4H69.2ZM61.2 61.2C61.2 62.6 61.8 63.5 62.8 63.9C64.1 64.4 65.5 63.8 65.9 62.6C66.6 61 65.9 59.2 64.7 58.6H64.5C62.7 58 61.3 59.2 61.3 61.2H61.2ZM116.3 30.7C116 30.1 115.9 29.4 115.7 28.7L114.5 22.1C114.5 21.8 114.3 21.7 114 21.6L110.3 20.5L104.9 18.7C104.8 18.7 104.7 18.7 104.7 18.5C107.696 19.0804 110.758 19.2487 113.8 19C114.8 18.8 115.7 18.3 116.3 17.4C117.165 15.7077 117.739 13.8824 118 12L118.4 10.3V19C118.3 19.4 118.5 19.4 118.8 19.5C121.6 20.5 124.5 21.3 127.3 22.2L127.9 22.4V22.5L126.2 22.3C124.1 22 121.9 21.7 119.7 22C117.7 22.2 117.1 22.8 116.7 24.7C116.2 26.5 116.2 28.4 116.2 30.2V30.8L116.3 30.7ZM104.9 66H99.3C98.9 66 98.8 66 98.8 65.6V61.2V57C98.8 56.6 98.8 56.4 99.3 56.5H105.4V58.2C105.4 58.5 105.4 58.6 105 58.6H102C101.6 58.6 101.5 58.6 101.5 59.1C101.5 60.1 101.5 60.1 102.6 60.1H104.6C104.8 60.1 104.9 60.2 104.9 60.5V61.8C104.9 62.1 104.8 62.2 104.5 62.2H102C101.7 62.2 101.6 62.2 101.6 62.6C101.6 63.9 101.6 63.9 102.9 63.9H105L105.5 64V65.3C105.5 65.9 105.5 66.2 104.9 66.1V66ZM93.2 23.7L93 22.5L92.6 20.2C92.5 19.8 92.3 19.6 91.9 19.5C89.5 18.7 87.2 18 84.9 17.1L88.3 17.5C89.6 17.6 90.8 17.7 92.1 17.5C92.6 17.3 93.2 17.3 93.4 16.7C94.2 16.2 94.4 15.4 94.7 14.6C95.1 13.5 95.5 12.3 95.7 11.1V16.8C95.6 18 95.5 17.7 96.5 18L102.5 19.9C102.6 19.9 102.7 19.9 102.8 20.1L101 19.9C100.8 19.9 100.5 19.7 100.2 19.9H100.1C99.9 19.6 99.7 19.7 99.5 19.7L96.2 19.8C95.2 20 94.7 20.5 94.4 21.4C94.1 22.4 94 23.4 94 24.3C93.8 25.1 94 25.9 93.9 26.7L93.6 25.4C93.5 24.8 93.5 24.2 93.2 23.7Z" fill="#483D8B"/>
<path d="M117.2 70.1C114.058 70.0528 110.934 69.6162 107.9 68.8C107.7 68.8 107.5 68.8 107.3 68.6C107.2 68.5 106.7 68.6 106.9 68.3C107 67.9 107.1 67.6 107.7 67.8C111.3 68.8 115.1 69.4 119 69.2C122.4 69 125.7 68.2 128.6 66.2C131.7 64 133.6 61 134.2 57.2V57C134.2 56.4 134.6 56.4 135 56.5C135.5 56.5 135.2 56.9 135.1 57.1C134.1 63 130.9 66.9 125.3 68.9C122.9 69.9 120.1 70.2 117.3 70.2L117.2 70.1ZM95 5.70001L98 6.00001C99 6.10001 100.1 6.10001 101.2 6.00001C102 5.80001 102.6 5.40001 103 4.60001C103.6 3.40001 104 2.10001 104.2 0.800006L104.3 0.100006V5.60001C104.3 6.10001 104.4 6.30001 104.9 6.40001L110.4 8.10001L111.3 8.40001C109.4 8.10001 107.6 7.90001 105.8 8.00001H105.5C104 8.10001 103.5 8.60001 103.1 10L102.8 12V14L101.8 9.50001C101.5 7.90001 101.5 7.90001 100 7.50001L95 5.80001V5.70001ZM85.5 11.9V12.4H85.2C85.2 11 84.6 9.60001 84.5 8.20001C84.5 7.40001 84 7.10001 83.2 6.80001L78.7 5.40001C79.6 5.20001 80.3 5.40001 81.2 5.40001C82.1 5.50001 83 5.60001 84 5.40001C84.3109 5.36238 84.6085 5.25229 84.8691 5.0786C85.1296 4.90491 85.3457 4.67248 85.5 4.40001C86.1197 3.17805 86.5256 1.85898 86.7 0.500006L86.9 0.300006V5.00001C86.8 5.50001 86.9 5.70001 87.4 5.80001L92.1 7.30001L92.3 7.50001L90.9 7.40001C89.9 7.20001 88.7 7.20001 87.7 7.30001C86.5 7.30001 86.1 7.80001 85.7 8.80001C85.5495 9.45561 85.4823 10.1276 85.5 10.8V11.8V11.9ZM74 17.4C72.5 19.4 71.6 21.6 71.3 24.1C70.897 26.6666 71.0332 29.289 71.7 31.8C71.7 32.5 71.5 32.8 71 33.1L70.6 31.8L70.1 27.9C70.1 25.9 70.2 24.1 70.7 22.2C70.9 21.2 71.3 20.4 71.7 19.5C72.5 17.8 73.7 16.3 75 15C75.6 14.4 76.2 13.9 76.9 13.5L78.5 12.7H78.7C78.8 13.1 78.7 13.7 78.3 13.9C76.8 14.7 75.5 15.7 74.3 17L74.1 17.4H74ZM113 14C114.4 14 115.5 15 115.5 16.2C115.5 17.4 114.3 18.4 112.9 18.4C111.6 18.4 110.5 17.4 110.5 16.1C110.5 14.9 111.7 13.9 113 13.9V14ZM112.6 14.8C111.8 14.8 111.2 15.3 111.2 16C111.2 16.7 111.8 17.3 112.6 17.3C113.4 17.3 114 16.7 114 16C114 15.3 113.4 14.8 112.6 14.8ZM92.6 16.5C91.3 17.2 90.6 17.1 89.6 16.1C89 15.1 89.4 14.1 90.3 13.6C91.1 13.2 92.5 13.3 93.1 14.4C93.5 15.2 93.1 15.9 92.6 16.5V16.5ZM91 14C90.3 14 89.8 14.5 89.8 15C89.8 15.6 90.4 16.1 91 16.1C91.6 16.1 92.1 15.6 92.2 15.1C92.2 14.5 91.6 14.1 91 14.1V14Z" fill="#483D8B"/>
<path d="M100.5 2.40001C101.5 2.40001 102.2 3.10001 102.2 4.00001C102.2 4.90001 101.4 5.50001 100.4 5.50001C99.4 5.50001 98.7 4.80001 98.7 3.90001C98.7 3.00001 99.5 2.40001 100.5 2.40001ZM100.1 2.90001C99.6 2.90001 99.1 3.40001 99.1 3.90001C99.1 4.40001 99.6 4.80001 100.1 4.80001C100.7 4.80001 101.2 4.40001 101.2 3.80001C101.2 3.40001 100.7 2.90001 100.2 2.90001H100.1ZM126 31.8C125.2 32.1 124.8 31.9 124.4 31.4L121.3 28C121.2 27.9 120.8 27.8 121.1 27.6C121.3 27.4 121.6 27 122 27.4L124.8 30.4L125.9 31.8H126ZM83.4 5.10001C82.4 5.10001 81.8 4.40001 81.8 3.60001C81.8 2.90001 82.6 2.20001 83.4 2.20001C84.3 2.20001 85 2.90001 85 3.70001C85 4.50001 84.2 5.10001 83.4 5.10001ZM83.1 4.40001C83.6 4.40001 84.1 4.00001 84.1 3.60001C84.1 3.20001 83.6 2.80001 83.1 2.80001C82.7 2.80001 82.2 3.20001 82.3 3.60001C82.3 4.00001 82.7 4.30001 83.1 4.40001ZM90.8 31.5H95.3C95.7 31.5 95.8 31.7 95.8 32.1V40.3L98.3 37.1L102.6 31.5H108.2C107.2 33 106.1 34.3 105.1 35.6L104.1 36.9L100.9 40.9C100.6 41.2 100.7 41.4 100.9 41.7L103.2 45L106.5 49.7L108.5 52.7H103.1C102.6 52.7 102.3 52.5 102.1 52.2L100.9 50.5C100.3 49.5 99.7 48.5 99 47.7V47.5L97.8 46L95.8 43L95.7 43.6V52.1C95.7 52.5 95.6 52.6 95.2 52.6H91.1C90.5 52.6 90.5 52.5 90.5 52V32.6V32V31.7H90.7L90.8 31.5ZM85 66V62V60.7V57C85 56.7 85 56.5 85.4 56.5H87.4C87.7 56.5 87.7 56.6 87.7 56.9V59.7C87.7 60 87.8 60.1 88.1 60.1H91.1C91.5 60.1 91.5 60 91.5 59.7V57.4C91.5 56.6 91.5 56.6 92.3 56.5C92.9 56.499 93.5 56.499 94.1 56.5C94.4 56.7 94.3 56.9 94.3 57.1V66.1H91.4V62.8C91.4 62.4 91.3 62.3 90.9 62.3H88.1C87.7 62.3 87.6 62.4 87.6 62.8V65.8C87.6 66 87.6 66.2 87.2 66.2H85H84.9L85 66ZM73 63.4C72.1 61 72.5 57.7 76 56.6L76.1 56.5H76.4C77.1 56.3 77.8 56.3 78.4 56.3C79.2376 56.2958 80.0629 56.5021 80.8 56.9C81 57 81.1 57.2 80.9 57.4L80.1 58.8C80 59 79.9 59.1 79.6 58.9C79.075 58.6356 78.4838 58.5313 77.9 58.6C76.7 58.6 75.9 59.2 75.6 60.4V62C75.9 63.8 77.6 64.6 79.5 63.8C80.2 63.5 80.2 63.5 80.5 64.2L80.7 64.5C81.2 65.5 81.2 65.5 80.2 65.9L79.6 66.2C79.3 66.1 79 66.2 78.8 66.2C77 66.4 75.3 66.2 73.9 64.9L72.9 63.5L73 63.4ZM74.8 44.3V36.5C74.8 36.1 74.9 36 75.3 36H79.1C79.6 36 79.7 36.1 79.7 36.5V48.2C79.7 48.7 79.7 48.9 80.3 48.9H85.8C86.2 48.9 86.3 48.9 86.3 49.3V52.2C86.3 52.5 86.3 52.6 85.9 52.6H75.2C74.9 52.6 74.8 52.6 74.8 52.2V44.2V44.3Z" fill="#483D8B"/>
</svg>
