<svg width="1134" height="351" fill="none" xmlns="http://www.w3.org/2000/svg"><path d="M35 315h106c21 0 38-2 50-6 17-6 30-13 40-22 13-13 22-30 30-50 5-16 8-36 8-59 0-26-3-49-9-66-6-18-15-33-27-45a90 90 0 00-42-26c-12-4-30-6-53-6H35v280zm82-232c23 0 39 0 46 2 11 3 19 7 27 14 6 6 12 15 15 26 4 12 6 29 6 50 0 22-2 39-6 51-3 13-8 22-14 27-7 6-14 9-23 12-7 2-18 2-34 2H92V83h25zM441 35h-60L273 315h60l23-64h112l24 64h61L441 35zm-68 169l38-103 39 103h-77zM723 35h-60L555 315h59l24-64h112l24 64h61L723 35zm-68 169l38-103 38 103h-76zM865 315h105c22 0 38-2 50-6 17-6 30-13 40-22 13-13 23-30 30-50 6-16 8-36 8-59 0-26-3-49-9-66-6-18-15-33-26-45a90 90 0 00-42-26c-13-4-30-6-53-6H865v280zm82-232c22 0 38 0 46 2 10 3 19 7 26 14 6 6 12 15 15 26 4 12 6 29 6 50 0 22-2 39-6 51-3 13-8 22-14 27-6 6-14 9-23 12-7 2-18 2-34 2h-42V83h26z" fill="#473C88"/></svg>